#N canvas -8 -8 1366 725 12;
#X declare -stdpath mrpeach;
#X obj 46 53 tgl 15 0 empty empty empty 17 7 0 10 -262144 -1 -1 1 1
;
#X msg 46 73 \; pd dsp \$1;
#X text 25 28 Activa la salida;
#X obj 155 470 Song1;
#X obj 63 455 bng 15 250 50 0 empty empty Open_File 17 7 0 10 -159808
-1 -1;
#X obj 65 308 vsl 15 100 0 1 0 0 empty empty volumen 0 -9 0 10 -260097
-1 -1 7920 1;
#X obj 176 396 bng 15 250 50 0 empty empty play 17 7 0 10 -4034 -1
-1;
#X obj 287 396 bng 15 250 50 0 empty empty pause 17 7 0 10 -4032 -1
-1;
#X obj 46 111 declare -stdpath mrpeach;
#X obj 174 165 print;
#X obj 46 165 unpackOSC;
#X obj 65 234 routeOSC /Song1/volumen /Song1/play /Song1/pause;
#X obj 176 306 sel 1;
#X obj 287 306 sel 1;
#X obj 585 289 sel 1;
#X obj 696 289 sel 1;
#X obj 474 289 s volumen;
#X obj 474 238 routeOSC /Song2/volumen /Song2/play /Song2/pause;
#X floatatom 65 270 5 0 1 0 - - -;
#X floatatom 176 270 5 0 0 0 - - -;
#X floatatom 287 270 5 0 0 0 - - -;
#X obj 46 135 udpreceive 8080;
#X connect 0 0 1 0;
#X connect 4 0 3 0;
#X connect 5 0 3 1;
#X connect 6 0 3 2;
#X connect 7 0 3 3;
#X connect 10 0 9 0;
#X connect 10 0 11 0;
#X connect 10 0 17 0;
#X connect 11 0 18 0;
#X connect 11 1 19 0;
#X connect 11 2 20 0;
#X connect 12 0 6 0;
#X connect 13 0 7 0;
#X connect 17 0 16 0;
#X connect 17 1 14 0;
#X connect 17 2 15 0;
#X connect 18 0 5 0;
#X connect 19 0 12 0;
#X connect 20 0 13 0;
#X connect 21 0 10 0;
