#N canvas -8 -8 1366 725 12;
#X declare -stdpath mrpeach;
#X obj 46 53 tgl 15 0 empty empty empty 17 7 0 10 -262144 -1 -1 0 1
;
#X msg 46 73 \; pd dsp \$1;
#X text 25 28 Activa la salida;
#X obj 155 470 Song1;
#X obj 63 455 bng 15 250 50 0 empty empty Open_File 17 7 0 10 -159808
-1 -1;
#X obj 65 308 vsl 15 100 0 1 0 0 empty empty volumen 0 -9 0 10 -260097
-1 -1 0 1;
#X obj 176 396 bng 15 250 50 0 empty empty play 17 7 0 10 -4034 -1
-1;
#X obj 287 396 bng 15 250 50 0 empty empty pause 17 7 0 10 -4032 -1
-1;
#X obj 46 111 declare -stdpath mrpeach;
#X obj 174 165 print;
#X obj 46 165 unpackOSC;
#X obj 176 306 sel 1;
#X obj 287 306 sel 1;
#X floatatom 65 270 5 0 1 0 - - -;
#X floatatom 176 270 5 0 0 0 - - -;
#X floatatom 287 270 5 0 0 0 - - -;
#X obj 46 135 udpreceive 8080;
#X obj 455 470 Song1;
#X obj 363 455 bng 15 250 50 0 empty empty Open_File 17 7 0 10 -159808
-1 -1;
#X obj 365 308 vsl 15 100 0 1 0 0 empty empty volumen 0 -9 0 10 -260097
-1 -1 0 1;
#X obj 476 396 bng 15 250 50 0 empty empty play 17 7 0 10 -4034 -1
-1;
#X obj 587 396 bng 15 250 50 0 empty empty pause 17 7 0 10 -4032 -1
-1;
#X obj 476 306 sel 1;
#X obj 587 306 sel 1;
#X floatatom 365 270 5 0 1 0 - - -;
#X floatatom 476 270 5 0 0 0 - - -;
#X floatatom 587 270 5 0 0 0 - - -;
#X obj 365 234 routeOSC /volumen1 /play1 /pause1;
#X obj 765 470 Song1;
#X obj 673 455 bng 15 250 50 0 empty empty Open_File 17 7 0 10 -159808
-1 -1;
#X obj 675 308 vsl 15 100 0 1 0 0 empty empty volumen 0 -9 0 10 -260097
-1 -1 0 1;
#X obj 786 396 bng 15 250 50 0 empty empty play 17 7 0 10 -4034 -1
-1;
#X obj 897 396 bng 15 250 50 0 empty empty pause 17 7 0 10 -4032 -1
-1;
#X obj 786 306 sel 1;
#X obj 897 306 sel 1;
#X floatatom 675 270 5 0 1 0 - - -;
#X floatatom 786 270 5 0 0 0 - - -;
#X floatatom 897 270 5 0 0 0 - - -;
#X obj 1065 470 Song1;
#X obj 973 455 bng 15 250 50 0 empty empty Open_File 17 7 0 10 -159808
-1 -1;
#X obj 975 308 vsl 15 100 0 1 0 0 empty empty volumen 0 -9 0 10 -260097
-1 -1 0 1;
#X obj 1086 396 bng 15 250 50 0 empty empty play 17 7 0 10 -4034 -1
-1;
#X obj 1197 396 bng 15 250 50 0 empty empty pause 17 7 0 10 -4032 -1
-1;
#X obj 1086 306 sel 1;
#X obj 1197 306 sel 1;
#X floatatom 975 270 5 0 1 0 - - -;
#X floatatom 1086 270 5 0 0 0 - - -;
#X floatatom 1197 270 5 0 0 0 - - -;
#X obj 1375 470 Song1;
#X obj 1283 455 bng 15 250 50 0 empty empty Open_File 17 7 0 10 -159808
-1 -1;
#X obj 1285 308 vsl 15 100 0 1 0 0 empty empty volumen 0 -9 0 10 -260097
-1 -1 0 1;
#X obj 1396 396 bng 15 250 50 0 empty empty play 17 7 0 10 -4034 -1
-1;
#X obj 1507 396 bng 15 250 50 0 empty empty pause 17 7 0 10 -4032 -1
-1;
#X obj 1396 306 sel 1;
#X obj 1507 306 sel 1;
#X floatatom 1285 270 5 0 1 0 - - -;
#X floatatom 1396 270 5 0 0 0 - - -;
#X floatatom 1507 270 5 0 0 0 - - -;
#X obj 1695 470 Song1;
#X obj 1603 455 bng 15 250 50 0 empty empty Open_File 17 7 0 10 -159808
-1 -1;
#X obj 1605 308 vsl 15 100 0 1 0 0 empty empty volumen 0 -9 0 10 -260097
-1 -1 0 1;
#X obj 1716 396 bng 15 250 50 0 empty empty play 17 7 0 10 -4034 -1
-1;
#X obj 1827 396 bng 15 250 50 0 empty empty pause 17 7 0 10 -4032 -1
-1;
#X obj 1716 306 sel 1;
#X obj 1827 306 sel 1;
#X floatatom 1605 270 5 0 1 0 - - -;
#X floatatom 1716 270 5 0 0 0 - - -;
#X floatatom 1827 270 5 0 0 0 - - -;
#X obj 1995 470 Song1;
#X obj 1903 455 bng 15 250 50 0 empty empty Open_File 17 7 0 10 -159808
-1 -1;
#X obj 1905 308 vsl 15 100 0 1 0 0 empty empty volumen 0 -9 0 10 -260097
-1 -1 0 1;
#X obj 2016 396 bng 15 250 50 0 empty empty play 17 7 0 10 -4034 -1
-1;
#X obj 2127 396 bng 15 250 50 0 empty empty pause 17 7 0 10 -4032 -1
-1;
#X obj 2016 306 sel 1;
#X obj 2127 306 sel 1;
#X floatatom 1905 270 5 0 1 0 - - -;
#X floatatom 2016 270 5 0 0 0 - - -;
#X floatatom 2127 270 5 0 0 0 - - -;
#X obj 2295 470 Song1;
#X obj 2203 455 bng 15 250 50 0 empty empty Open_File 17 7 0 10 -159808
-1 -1;
#X obj 2205 308 vsl 15 100 0 1 0 0 empty empty volumen 0 -9 0 10 -260097
-1 -1 0 1;
#X obj 2316 396 bng 15 250 50 0 empty empty play 17 7 0 10 -4034 -1
-1;
#X obj 2427 396 bng 15 250 50 0 empty empty pause 17 7 0 10 -4032 -1
-1;
#X obj 2316 306 sel 1;
#X obj 2427 306 sel 1;
#X floatatom 2205 270 5 0 1 0 - - -;
#X floatatom 2316 270 5 0 0 0 - - -;
#X floatatom 2427 270 5 0 0 0 - - -;
#X obj 2595 470 Song1;
#X obj 2503 455 bng 15 250 50 0 empty empty Open_File 17 7 0 10 -159808
-1 -1;
#X obj 2505 308 vsl 15 100 0 1 0 0 empty empty volumen 0 -9 0 10 -260097
-1 -1 0 1;
#X obj 2616 396 bng 15 250 50 0 empty empty play 17 7 0 10 -4034 -1
-1;
#X obj 2727 396 bng 15 250 50 0 empty empty pause 17 7 0 10 -4032 -1
-1;
#X obj 2616 306 sel 1;
#X obj 2727 306 sel 1;
#X floatatom 2505 270 5 0 1 0 - - -;
#X floatatom 2616 270 5 0 0 0 - - -;
#X floatatom 2727 270 5 0 0 0 - - -;
#X obj 2905 470 Song1;
#X obj 2813 455 bng 15 250 50 0 empty empty Open_File 17 7 0 10 -159808
-1 -1;
#X obj 2815 308 vsl 15 100 0 1 0 0 empty empty volumen 0 -9 0 10 -260097
-1 -1 0 1;
#X obj 2926 396 bng 15 250 50 0 empty empty play 17 7 0 10 -4034 -1
-1;
#X obj 3037 396 bng 15 250 50 0 empty empty pause 17 7 0 10 -4032 -1
-1;
#X obj 2926 306 sel 1;
#X obj 3037 306 sel 1;
#X floatatom 2815 270 5 0 1 0 - - -;
#X floatatom 2926 270 5 0 0 0 - - -;
#X floatatom 3037 270 5 0 0 0 - - -;
#X obj 3205 470 Song1;
#X obj 3113 455 bng 15 250 50 0 empty empty Open_File 17 7 0 10 -159808
-1 -1;
#X obj 3115 308 vsl 15 100 0 1 0 0 empty empty volumen 0 -9 0 10 -260097
-1 -1 0 1;
#X obj 3226 396 bng 15 250 50 0 empty empty play 17 7 0 10 -4034 -1
-1;
#X obj 3337 396 bng 15 250 50 0 empty empty pause 17 7 0 10 -4032 -1
-1;
#X obj 3226 306 sel 1;
#X obj 3337 306 sel 1;
#X floatatom 3115 270 5 0 1 0 - - -;
#X floatatom 3226 270 5 0 0 0 - - -;
#X floatatom 3337 270 5 0 0 0 - - -;
#X obj 65 234 routeOSC /volumen0 /play0 /pause0;
#X obj 675 234 routeOSC /volumen2 /play2 /pause2;
#X obj 975 234 routeOSC /volumen3 /play3 /pause3;
#X obj 1285 234 routeOSC /volumen4 /play4 /pause4;
#X obj 1605 235 routeOSC /volumen5 /play5 /pause5;
#X obj 1905 234 routeOSC /volumen6 /play6 /pause6;
#X obj 2205 234 routeOSC /volumen7 /play7 /pause7;
#X obj 2505 234 routeOSC /volumen8 /play8 /pause8;
#X obj 2815 234 routeOSC /volumen9 /play9 /pause9;
#X obj 3115 234 routeOSC /volumen10 /play10 /pause10;
#X obj 3495 470 Song1;
#X obj 3403 455 bng 15 250 50 0 empty empty Open_File 17 7 0 10 -159808
-1 -1;
#X obj 3405 308 vsl 15 100 0 1 0 0 empty empty volumen 0 -9 0 10 -260097
-1 -1 0 1;
#X obj 3516 396 bng 15 250 50 0 empty empty play 17 7 0 10 -4034 -1
-1;
#X obj 3627 396 bng 15 250 50 0 empty empty pause 17 7 0 10 -4032 -1
-1;
#X obj 3516 306 sel 1;
#X obj 3627 306 sel 1;
#X floatatom 3405 270 5 0 1 0 - - -;
#X floatatom 3516 270 5 0 0 0 - - -;
#X floatatom 3627 270 5 0 0 0 - - -;
#X obj 3405 234 routeOSC /volumen11 /play11 /pause11;
#X connect 0 0 1 0;
#X connect 4 0 3 0;
#X connect 5 0 3 1;
#X connect 6 0 3 2;
#X connect 7 0 3 3;
#X connect 10 0 9 0;
#X connect 10 0 27 0;
#X connect 10 0 118 0;
#X connect 10 0 119 0;
#X connect 10 0 120 0;
#X connect 10 0 121 0;
#X connect 10 0 122 0;
#X connect 10 0 123 0;
#X connect 10 0 124 0;
#X connect 10 0 125 0;
#X connect 10 0 126 0;
#X connect 10 0 127 0;
#X connect 10 0 138 0;
#X connect 11 0 6 0;
#X connect 12 0 7 0;
#X connect 13 0 5 0;
#X connect 14 0 11 0;
#X connect 15 0 12 0;
#X connect 16 0 10 0;
#X connect 18 0 17 0;
#X connect 19 0 17 1;
#X connect 20 0 17 2;
#X connect 21 0 17 3;
#X connect 22 0 20 0;
#X connect 23 0 21 0;
#X connect 24 0 19 0;
#X connect 25 0 22 0;
#X connect 26 0 23 0;
#X connect 27 0 24 0;
#X connect 27 1 25 0;
#X connect 27 2 26 0;
#X connect 29 0 28 0;
#X connect 30 0 28 1;
#X connect 31 0 28 2;
#X connect 32 0 28 3;
#X connect 33 0 31 0;
#X connect 34 0 32 0;
#X connect 35 0 30 0;
#X connect 36 0 33 0;
#X connect 37 0 34 0;
#X connect 39 0 38 0;
#X connect 40 0 38 1;
#X connect 41 0 38 2;
#X connect 42 0 38 3;
#X connect 43 0 41 0;
#X connect 44 0 42 0;
#X connect 45 0 40 0;
#X connect 46 0 43 0;
#X connect 47 0 44 0;
#X connect 49 0 48 0;
#X connect 50 0 48 1;
#X connect 51 0 48 2;
#X connect 52 0 48 3;
#X connect 53 0 51 0;
#X connect 54 0 52 0;
#X connect 55 0 50 0;
#X connect 56 0 53 0;
#X connect 57 0 54 0;
#X connect 59 0 58 0;
#X connect 60 0 58 1;
#X connect 61 0 58 2;
#X connect 62 0 58 3;
#X connect 63 0 61 0;
#X connect 64 0 62 0;
#X connect 65 0 60 0;
#X connect 66 0 63 0;
#X connect 67 0 64 0;
#X connect 69 0 68 0;
#X connect 70 0 68 1;
#X connect 71 0 68 2;
#X connect 72 0 68 3;
#X connect 73 0 71 0;
#X connect 74 0 72 0;
#X connect 75 0 70 0;
#X connect 76 0 73 0;
#X connect 77 0 74 0;
#X connect 79 0 78 0;
#X connect 80 0 78 1;
#X connect 81 0 78 2;
#X connect 82 0 78 3;
#X connect 83 0 81 0;
#X connect 84 0 82 0;
#X connect 85 0 80 0;
#X connect 86 0 83 0;
#X connect 87 0 84 0;
#X connect 89 0 88 0;
#X connect 90 0 88 1;
#X connect 91 0 88 2;
#X connect 92 0 88 3;
#X connect 93 0 91 0;
#X connect 94 0 92 0;
#X connect 95 0 90 0;
#X connect 96 0 93 0;
#X connect 97 0 94 0;
#X connect 99 0 98 0;
#X connect 100 0 98 1;
#X connect 101 0 98 2;
#X connect 102 0 98 3;
#X connect 103 0 101 0;
#X connect 104 0 102 0;
#X connect 105 0 100 0;
#X connect 106 0 103 0;
#X connect 107 0 104 0;
#X connect 109 0 108 0;
#X connect 110 0 108 1;
#X connect 111 0 108 2;
#X connect 112 0 108 3;
#X connect 113 0 111 0;
#X connect 114 0 112 0;
#X connect 115 0 110 0;
#X connect 116 0 113 0;
#X connect 117 0 114 0;
#X connect 118 0 13 0;
#X connect 118 1 14 0;
#X connect 118 2 15 0;
#X connect 119 0 35 0;
#X connect 119 1 36 0;
#X connect 119 2 37 0;
#X connect 120 0 45 0;
#X connect 120 1 46 0;
#X connect 120 2 47 0;
#X connect 121 0 55 0;
#X connect 121 1 56 0;
#X connect 121 2 57 0;
#X connect 122 0 65 0;
#X connect 122 1 66 0;
#X connect 122 2 67 0;
#X connect 123 0 75 0;
#X connect 123 1 76 0;
#X connect 123 2 77 0;
#X connect 124 0 85 0;
#X connect 124 1 86 0;
#X connect 124 2 87 0;
#X connect 125 0 95 0;
#X connect 125 1 96 0;
#X connect 125 2 97 0;
#X connect 126 0 105 0;
#X connect 126 1 106 0;
#X connect 126 2 107 0;
#X connect 127 0 115 0;
#X connect 127 1 116 0;
#X connect 127 2 117 0;
#X connect 129 0 128 0;
#X connect 130 0 128 1;
#X connect 131 0 128 2;
#X connect 132 0 128 3;
#X connect 133 0 131 0;
#X connect 134 0 132 0;
#X connect 135 0 130 0;
#X connect 136 0 133 0;
#X connect 137 0 134 0;
#X connect 138 0 135 0;
#X connect 138 1 136 0;
#X connect 138 2 137 0;
