#N canvas -8 -8 1366 725 12;
#X obj 46 106 tgl 15 0 empty empty empty 17 7 0 10 -262144 -1 -1 1
1;
#X msg 46 126 \; pd dsp \$1;
#X text 25 81 Activa la salida;
#X obj 405 86 bng 15 250 50 0 empty empty Abrir_archivo_de_sonido_.wav
17 7 0 10 -262144 -1 -1;
#X obj 405 109 openpanel;
#N canvas 0 50 450 250 (subpatch) 0;
#X array canalR 1.60885e+006 float 2;
#X coords 0 1 1.60885e+006 -1 200 140 1 0 0;
#X restore 897 286 graph;
#X obj 405 163 soundfiler;
#X floatatom 437 192 20 0 0 0 - - -;
#N canvas 0 50 450 250 (subpatch) 0;
#X array canalL 1.60885e+006 float 2;
#X coords 0 1 1.60885e+006 -1 200 140 1 0 0;
#X restore 897 132 graph;
#X msg 405 136 read -resize \$1 canalL canalR;
#X obj 405 248 expr 44100 / $f1;
#X obj 405 385 phasor~;
#X floatatom 418 277 15 0 0 0 - - -;
#X obj 405 494 *~;
#X obj 405 697 tabread~ canalL;
#X obj 550 697 tabread~ canalR;
#X obj 405 724 *~;
#X obj 550 724 *~;
#X obj 405 758 dac~ 1 2;
#X obj 896 597 vsl 15 100 0 1 0 0 empty empty Volumen 0 -9 0 10 -4034
-1 -1 3300 1;
#X obj 896 714 s volumen;
#X obj 680 697 r volumen;
#X obj 437 218 s muestras;
#X obj 423 464 r muestras;
#X text 594 191 Número de muestras por ms;
#X obj 605 458 loadbang;
#X obj 581 458 bng 15 250 50 0 empty empty empty 17 7 0 10 -262144
-1 -1;
#X obj 605 485 metro 50;
#X obj 605 512 snapshot~;
#X floatatom 605 548 20 0 0 0 - - -;
#X obj 766 548 r muestras;
#X obj 605 585 /;
#X floatatom 605 614 10 0 0 0 - - -;
#X obj 605 642 s posicion;
#X obj 900 503 hsl 200 15 0 1 0 0 empty empty empty -2 -8 0 10 -262144
-1 -1 10 1;
#X obj 897 470 r posicion;
#X text 475 386 Permite controlar el archivo de audio;
#X text 538 249 Calcula la velocidad de reproducción;
#X obj 418 303 s velocidad_actual;
#X obj 124 370 hsl 250 15 -1 1 0 0 empty empty control_de_velocidad
-2 -8 0 10 -257985 -1 -1 12791 1;
#X msg 201 289 0;
#X floatatom 121 408 5 0 0 0 - - -;
#X obj 43 351 line;
#X msg 8 223 -0.12;
#X floatatom 43 405 5 0 0 0 - - -;
#X msg 68 223 0.027411 3000;
#X obj 1037 563 bng 15 250 50 0 empty empty empty 17 7 0 10 -262144
-1 -1;
#X obj 1061 563 s play;
#X obj 121 272 r play;
#X obj 201 258 r pause;
#X obj 1037 593 bng 15 250 50 0 empty empty empty 17 7 0 10 -262144
-1 -1;
#X obj 1061 593 s pause;
#X obj 1037 622 bng 15 250 50 0 empty empty empty 17 7 0 10 -262144
-1 -1;
#X obj 1037 651 bng 15 250 50 0 empty empty empty 17 7 0 10 -262144
-1 -1;
#X obj 1061 626 s restart;
#X obj 1061 659 s stop;
#X msg 451 358 0;
#X obj 451 333 r restart;
#X obj 295 235 r stop;
#X obj 295 270 t b b;
#X obj 532 366 r nPos;
#X obj 897 532 s nPos;
#X obj 8 191 bng 15 250 50 0 empty empty Agrega_de_efecto_reverse_y_continua
17 7 0 10 -262144 -1 -1;
#X text 897 439 Controles de reproducción;
#X text 625 136 Muestra en un array la onda de .wav;
#X obj 985 563 inlet;
#X obj 986 592 inlet;
#X obj 896 562 inlet;
#X obj 405 47 inlet;
#X obj 70 253 r velocidad_actual;
#X floatatom 121 301 10 0 0 0 - - -;
#X obj 44 516 vu 15 120 empty empty -1 -8 0 10 -66577 -1 1 0;
#X obj 43 464 env~;
#X obj 43 488 - 100;
#X floatatom 43 645 5 0 0 0 - - -;
#X obj 356 758 s~ BP;
#X obj 43 436 r~ BP;
#X obj 43 673 outlet;
#X connect 0 0 1 0;
#X connect 3 0 4 0;
#X connect 4 0 9 0;
#X connect 6 0 7 0;
#X connect 6 0 10 0;
#X connect 7 0 22 0;
#X connect 9 0 6 0;
#X connect 10 0 11 0;
#X connect 10 0 12 0;
#X connect 11 0 13 0;
#X connect 12 0 38 0;
#X connect 13 0 14 0;
#X connect 13 0 15 0;
#X connect 13 0 28 0;
#X connect 14 0 16 0;
#X connect 15 0 17 0;
#X connect 16 0 18 0;
#X connect 16 0 75 0;
#X connect 17 0 18 1;
#X connect 19 0 20 0;
#X connect 21 0 17 1;
#X connect 21 0 17 0;
#X connect 21 0 16 1;
#X connect 23 0 13 1;
#X connect 25 0 27 0;
#X connect 26 0 27 0;
#X connect 27 0 28 0;
#X connect 28 0 29 0;
#X connect 29 0 31 0;
#X connect 30 0 31 1;
#X connect 31 0 32 0;
#X connect 32 0 33 0;
#X connect 34 0 61 0;
#X connect 35 0 34 0;
#X connect 39 0 11 0;
#X connect 39 0 41 0;
#X connect 40 0 39 0;
#X connect 42 0 39 0;
#X connect 42 0 44 0;
#X connect 43 0 42 0;
#X connect 45 0 42 0;
#X connect 46 0 47 0;
#X connect 48 0 70 0;
#X connect 49 0 40 0;
#X connect 50 0 51 0;
#X connect 52 0 54 0;
#X connect 53 0 55 0;
#X connect 56 0 11 1;
#X connect 57 0 56 0;
#X connect 58 0 59 0;
#X connect 59 0 40 0;
#X connect 59 1 56 0;
#X connect 60 0 11 1;
#X connect 62 0 43 0;
#X connect 62 0 45 0;
#X connect 65 0 46 0;
#X connect 66 0 50 0;
#X connect 67 0 19 0;
#X connect 68 0 3 0;
#X connect 69 0 70 0;
#X connect 70 0 39 0;
#X connect 71 0 74 0;
#X connect 72 0 73 0;
#X connect 73 0 71 0;
#X connect 74 0 77 0;
#X connect 76 0 72 0;
